# xmcd
#
# Track frame offsets:
# 182
# 14217
# 32825
# 49437
# 61625
# 73565
# 89712
# 103540
# 117832
# 144302
# 157557
# 170920
#
# Disc length: 2413 seconds
#
# Revision: 1
# Processed by: cddbd v1.5.2PL0 Copyright (c) Steve Scherf et al.
# Submitted via: Axialis_AX_CDPlayer 2.6
#
DISCID=a3096b0c
DTITLE=Various Artist - Country Lovin Volume Three
DYEAR=1900
DGENRE=Country
TTITLE0=Randy Travis-On The Other Hand
TTITLE1=Deborah Allen-Rock Me(In The Cradle of Love)
TTITLE2=Shawm Camp-Fallin Never Felt So Good
TTITLE3=Dan Seals-When Love Comes Around The Bend
TTITLE4=Kieran Kane-You're The Best
TTITLE5=Glen Campbell-A Lady Like You
TTITLE6=Billy Joe Royal-Love Has No Right
TTITLE7=Donna Fargo-Do I Love You (Yes In Every Way)
TTITLE8=Jerry Lee Lewis-Who Will The Next Fool Be
TTITLE9=Margo Smith-Don't Break The Heart That Love You
TTITLE10=Rodney Crowell-Victim or A Fool
TTITLE11=Gail Davies-I'll Be There (If You Ever Want Me)
EXTD=
EXTT0=
EXTT1=
EXTT2=
EXTT3=
EXTT4=
EXTT5=
EXTT6=
EXTT7=
EXTT8=
EXTT9=
EXTT10=
EXTT11=
PLAYORDER=
